#!OML:ASF F:\VICON\USERDATA\INSTALL\rory3\rory3.ASF
:FULLY-SPECIFIED
:DEGREES
286
root 0.536191 17.8555 20.6176 -0.492691 -8.38735 -8.71871
lowerback 6.69711 2.90671 8.80917
upperback 0.495167 4.6044 2.63124
thorax -2.76792 2.19248 -2.58003
lowerneck -16.4671 -2.79577 -0.801896
upperneck 18.502 -3.76671 0.53327
head 8.50569 -1.77685 -0.142449
rclavicle -7.21216e-015 1.41137e-014
rhumerus -24.1669 -4.14148 -82.6707
rradius 33.5734
rwrist -2.54325
rhand -15.1875 21.3063
rfingers 7.12502
rthumb 10.9839 -8.38634
lclavicle -7.21216e-015 1.41137e-014
lhumerus -40.3118 0.357792 84.4487
lradius 30.635
lwrist 5.25056
lhand -22.4986 26.4913
lfingers 7.12502
lthumb 3.92732 56.4348
rfemur 5.01982 6.74552 35.7552
rtibia 22.8328
rfoot -21.2041 -1.70142
rtoes -4.87132
lfemur -27.5959 -11.3657 -3.6006
ltibia 15.5085
lfoot -10.6754 20.0331
ltoes -18.3947
287
root 0.544916 17.8381 20.781 -0.321509 -8.35268 -8.79857
lowerback 6.59855 2.88832 8.85817
upperback 0.378546 4.58102 2.62526
thorax -2.83312 2.17458 -2.60933
lowerneck -16.1257 -2.80442 -0.903175
upperneck 18.37 -3.78601 0.684655
head 8.40543 -1.77995 -0.0711164
rclavicle -1.27906e-014 -1.49089e-014
rhumerus -24.3097 -4.08991 -82.6842
rradius 33.8218
rwrist -2.46595
rhand -15.101 21.1188
rfingers 7.12502
rthumb 11.0673 -8.56943
lclavicle -1.27906e-014 -1.49089e-014
lhumerus -40.4888 0.625919 84.2809
lradius 30.212
lwrist 3.50584
lhand -22.7862 25.9407
lfingers 7.12502
lthumb 3.64955 55.8892
rfemur 5.37826 6.62763 35.8834
rtibia 22.7246
rfoot -21.6151 -2.42976
rtoes -7.11092
lfemur -27.9587 -11.2035 -3.44283
ltibia 14.9424
lfoot -10.8434 19.7152
ltoes -19.6106
288
root 0.552474 17.8073 20.9302 -0.033837 -8.19388 -8.89689
lowerback 6.65046 2.85337 8.95952
upperback 0.186792 4.56114 2.56255
thorax -3.05268 2.14861 -2.73856
lowerneck -15.9872 -2.85456 -0.911773
upperneck 18.2351 -3.88324 0.831887
head 8.33943 -1.81282 -0.0288073
rclavicle 1.92759e-014 -2.5842e-014
rhumerus -24.3162 -4.30771 -82.7439
rradius 33.8282
rwrist -2.17902
rhand -14.9091 21.363
rfingers 7.12502
rthumb 11.2524 -8.3152
lclavicle 1.92759e-014 -2.5842e-014
lhumerus -40.6695 0.488011 84.2682
lradius 30.0642
lwrist 2.5773
lhand -23.066 27.2937
lfingers 7.12502
lthumb 3.37933 57.2467
rfemur 5.63314 6.61944 36.0672
rtibia 22.6504
rfoot -21.8813 -3.29237
rtoes -8.0647
lfemur -28.6334 -9.9147 -3.73469
ltibia 14.9012
lfoot -10.2278 18.1045
ltoes -19.712
289
root 0.559349 17.7675 21.0844 0.0367658 -8.06867 -9.04669
lowerback 6.82446 2.81615 9.04413
upperback 0.185455 4.5386 2.55751
thorax -3.1476 2.13177 -2.79954
lowerneck -16.2573 -2.92121 -0.862966
upperneck 18.2012 -3.98704 0.843187
head 8.37635 -1.85577 -0.0492491
rclavicle -3.79151e-014 2.21148e-014
rhumerus -24.1061 -4.54853 -82.7868
rradius 33.7638
rwrist -2.03951
rhand -14.8058 21.7585
rfingers 7.12502
rthumb 11.3521 -7.91422
lclavicle -3.79151e-014 2.21148e-014
lhumerus -40.5698 0.558712 84.1448
lradius 30.3463
lwrist 1.35032
lhand -20.0136 32.7017
lfingers 7.12502
lthumb 6.32667 62.5872
rfemur 6.27544 6.81664 36.375
rtibia 22.4995
rfoot -22.2021 -3.98402
rtoes -7.94104
lfemur -29.228 -8.27818 -4.22058
ltibia 15.4015
lfoot -9.99592 16.0314
ltoes -17.3819
290
root 0.567243 17.7384 21.2535 0.0138497 -7.84152 -9.16358
lowerback 6.81403 2.75524 9.09741
upperback 0.310596 4.45142 2.57768
thorax -3.01779 2.09687 -2.79629
lowerneck -16.7625 -2.935 -0.774056
upperneck 18.2542 -4.01553 0.793551
head 8.48161 -1.86452 -0.0922252
rclavicle 5.3998e-014 1.86361e-014
rhumerus -23.914 -4.63899 -82.7841
rradius 33.8461
rwrist -2.08273
rhand -14.76 22.1437
rfingers 7.12502
rthumb 11.3962 -7.52664
lclavicle 5.3998e-014 1.86361e-014
lhumerus -40.3345 0.582417 84.1579
lradius 29.9665
lwrist 1.12416
lhand -17.9805 31.3392
lfingers 7.12502
lthumb 8.28917 61.1565
rfemur 7.02153 6.54138 36.5227
rtibia 22.3186
rfoot -22.5315 -4.35869
rtoes -8.73873
lfemur -29.7911 -6.71734 -4.85481
ltibia 16.2617
lfoot -10.2597 14.111
ltoes -14.8305
291
root 0.575653 17.708 21.4162 -0.0183449 -7.66035 -9.27734
lowerback 6.93332 2.69023 9.11857
upperback 0.399996 4.37571 2.63023
thorax -3.00209 2.06224 -2.75213
lowerneck -17.1508 -2.94144 -0.747393
upperneck 18.2046 -4.00617 0.694038
head 8.53112 -1.86672 -0.134476
rclavicle -6.13561e-014 -6.85807e-015
rhumerus -23.8554 -4.65936 -82.7656
rradius 34.1757
rwrist -2.07763
rhand -14.683 22.1173
rfingers 7.12502
rthumb 11.4705 -7.54893
lclavicle -6.13561e-014 -6.85807e-015
lhumerus -40.2076 0.67637 84.1773
lradius 29.771
lwrist 0.772956
lhand -19.819 31.3336
lfingers 7.12502
lthumb 6.51451 61.2134
rfemur 7.74285 6.30412 36.6595
rtibia 22.1021
rfoot -22.7346 -4.68788
rtoes -9.21826
lfemur -30.428 -5.66408 -5.26602
ltibia 17.2206
lfoot -10.1599 12.7919
ltoes -14.0261
292
root 0.584698 17.6711 21.5732 -0.165407 -7.66907 -9.46721
lowerback 7.33921 2.65674 9.21062
upperback 0.444027 4.38688 2.71904
thorax -3.18289 2.05963 -2.7345
lowerneck -17.1614 -2.95119 -0.944725
upperneck 17.9612 -3.9949 0.844993
head 8.4582 -1.86072 -0.0481577
rclavicle -3.07153e-014 1.41137e-014
rhumerus -23.9252 -4.64767 -82.7469
rradius 34.4751
rwrist -2.03262
rhand -14.649 21.9923
rfingers 7.12502
rthumb 11.5032 -7.67202
lclavicle -3.07153e-014 1.41137e-014
lhumerus -40.3269 0.793124 84.1943
lradius 29.8644
lwrist 0.551091
lhand -21.8323 31.3805
lfingers 7.12502
lthumb 4.5707 61.3112
rfemur 8.61532 6.41344 36.974
rtibia 21.9284
rfoot -22.8748 -5.1474
rtoes -9.45269
lfemur -30.8059 -5.16427 -5.31278
ltibia 18.0475
lfoot -9.51241 12.0071
ltoes -15.1896
293
root 0.60049 17.6399 21.7398 -0.328387 -7.8202 -9.58918
lowerback 7.71077 2.70965 9.35211
upperback 0.471442 4.51177 2.72104
thorax -3.33816 2.11263 -2.84189
lowerneck -17.2114 -3.03096 -1.05117
upperneck 17.8479 -4.10775 1.00398
head 8.43588 -1.90486 0.00883955
rclavicle 2.68856e-014 1.81888e-014
rhumerus -23.9638 -5.10073 -82.7211
rradius 34.3816
rwrist -1.8596
rhand -14.8388 22.1125
rfingers 7.12502
rthumb 11.3203 -7.56198
lclavicle 2.68856e-014 1.81888e-014
lhumerus -40.5139 0.038995 84.7801
lradius 29.1739
lwrist 4.14384
lhand -27.6979 20.9529
lfingers 7.12502
lthumb -1.09417 50.9299
rfemur 9.42446 6.54176 37.121
rtibia 21.9346
rfoot -22.9896 -5.18327
rtoes -9.65711
lfemur -30.8746 -5.10878 -5.23383
ltibia 18.6276
lfoot -8.89706 11.3911
ltoes -15.2998
294
root 0.619164 17.6179 21.9124 -0.32849 -7.94588 -9.40324
lowerback 7.7714 2.78446 9.20986
upperback 0.480074 4.60244 2.63815
thorax -3.35649 2.1587 -2.86132
lowerneck -17.377 -3.11978 -1.16609
upperneck 17.9443 -4.22314 1.11321
head 8.50441 -1.95361 0.0464584
rclavicle -2.37858e-014 -3.49364e-014
rhumerus -24.0213 -5.32644 -82.7084
rradius 34.358
rwrist -1.76124
rhand -14.9907 21.7694
rfingers 7.12502
rthumb 11.1737 -7.91312
lclavicle -2.37858e-014 -3.49364e-014
lhumerus -40.3081 0.382954 84.4088
lradius 29.3962
lwrist 0.855283
lhand -22.7493 30.0618
lfingers 7.12502
lthumb 3.68518 60.0097
rfemur 9.89678 6.71339 36.888
rtibia 22.153
rfoot -23.1404 -5.21731
rtoes -10.4079
lfemur -30.9064 -5.22377 -5.39223
ltibia 18.9097
lfoot -11.2984 10.5755
ltoes -8.15996
295
root 0.64115 17.6017 22.0868 -0.296093 -8.05781 -9.02955
lowerback 7.71821 2.89072 8.97094
upperback 0.489425 4.7087 2.44203
thorax -3.30636 2.21672 -2.93921
lowerneck -17.2481 -3.17821 -1.1105
upperneck 17.6408 -4.32946 1.19092
head 8.38071 -1.99503 0.0551042
rclavicle 2.48481e-016 3.3048e-015
rhumerus -24.3131 -5.45418 -82.7583
rradius 34.6907
rwrist -2.02302
rhand -15.0057 21.4426
rfingers 7.12502
rthumb 11.1593 -8.24069
lclavicle 2.48481e-016 3.3048e-015
lhumerus -40.0197 0.180295 84.3221
lradius 28.8805
lwrist 0.25869
lhand -19.3616 31.1294
lfingers 7.12502
lthumb 6.95611 60.9951
rfemur 10.3239 6.89293 36.4405
rtibia 22.403
rfoot -23.1252 -5.92183
rtoes -11.3853
lfemur -30.878 -5.58494 -5.65151
ltibia 19.0791
lfoot -9.43638 9.64415
ltoes -13.632
296
root 0.6617 17.5853 22.2646 -0.243756 -8.36909 -8.65948
lowerback 7.64379 3.03484 8.5779
upperback 0.512199 4.85242 2.32837
thorax -3.24599 2.29677 -2.84798
lowerneck -17.2283 -3.17286 -0.936349
upperneck 17.3906 -4.32598 1.01666
head 8.28438 -2.00219 -0.0283329
rclavicle -6.87702e-014 -4.40308e-014
rhumerus -24.5018 -5.56449 -82.7423
rradius 34.7156
rwrist -2.10613
rhand -15.1223 21.4758
rfingers 7.12502
rthumb 11.0468 -8.21349
lclavicle -6.87702e-014 -4.40308e-014
lhumerus -39.7894 0.309426 84.2526
lradius 28.6131
lwrist -0.0110987
lhand -17.4617 33.5358
lfingers 7.12502
lthumb 8.7898 63.3328
rfemur 10.8001 7.13363 35.9299
rtibia 22.6434
rfoot -22.9974 -6.26212
rtoes -11.8384
lfemur -30.7776 -5.85958 -5.83327
ltibia 19.2073
lfoot -9.06085 8.73814
ltoes -15.5556
297
root 0.687821 17.5621 22.4567 -0.222754 -8.75527 -8.68633
lowerback 7.61428 3.18498 8.68437
upperback 0.437129 5.06183 2.30312
thorax -3.2742 2.39557 -2.95013
lowerneck -17.0036 -3.19511 -0.955953
upperneck 17.3689 -4.37026 1.0996
head 8.24041 -2.01761 0.00105394
rclavicle -1.09319e-013 9.7653e-015
rhumerus -24.8429 -5.67618 -82.6887
rradius 34.4918
rwrist -2.1157
rhand -15.3493 21.9603
rfingers 7.12502
rthumb 10.8278 -7.74055
lclavicle -1.09319e-013 9.7653e-015
lhumerus -39.8688 0.352826 84.2488
lradius 28.217
lwrist 0.686576
lhand -20.0327 31.5687
lfingers 7.12502
lthumb 6.30821 61.4548
rfemur 11.4399 7.35992 35.7916
rtibia 22.8694
rfoot -23.3241 -5.5354
rtoes -13.4039
lfemur -30.5181 -6.01356 -5.67192
ltibia 19.3265
lfoot -9.73844 7.85741
ltoes -13.8127
